<svg xmlns="http://www.w3.org/2000/svg" viewBox="0 0 128 128" role="img" aria-labelledby="title desc">
  <title id="title">Cute Mango Loan mark</title>
  <desc id="desc">A smiling mango with a green leaf and warm orange gradient.</desc>
  <defs>
    <linearGradient id="mango" x1="28" y1="20" x2="100" y2="112" gradientUnits="userSpaceOnUse">
      <stop offset="0" stop-color="#FFE082"/>
      <stop offset="0.45" stop-color="#FBBF24"/>
      <stop offset="1" stop-color="#F97316"/>
    </linearGradient>
    <linearGradient id="leaf" x1="72" y1="8" x2="114" y2="43" gradientUnits="userSpaceOnUse">
      <stop offset="0" stop-color="#86EFAC"/>
      <stop offset="1" stop-color="#16A34A"/>
    </linearGradient>
    <filter id="softShadow" x="-20%" y="-20%" width="140%" height="140%">
      <feDropShadow dx="0" dy="5" stdDeviation="5" flood-color="#92400E" flood-opacity="0.18"/>
    </filter>
  </defs>
  <path d="M74 13c18 0 31 9 39 26-18 4-34 0-47-13 1-8 3-13 8-13Z" fill="url(#leaf)"/>
  <path d="M74 23c11 4 21 8 31 12" fill="none" stroke="#166534" stroke-width="4" stroke-linecap="round" opacity=".55"/>
  <path d="M63 20c34 2 51 28 43 61-7 29-32 45-58 34-25-10-35-39-25-64C30 34 45 19 63 20Z" fill="url(#mango)" filter="url(#softShadow)"/>
  <path d="M35 55c4-14 16-25 29-27" fill="none" stroke="#FFF7ED" stroke-width="8" stroke-linecap="round" opacity=".48"/>
  <circle cx="53" cy="67" r="5" fill="#3F220B"/>
  <circle cx="78" cy="67" r="5" fill="#3F220B"/>
  <circle cx="42" cy="78" r="7" fill="#FDBA74" opacity=".65"/>
  <circle cx="90" cy="78" r="7" fill="#FDBA74" opacity=".65"/>
  <path d="M55 84c6 7 16 7 22 0" fill="none" stroke="#3F220B" stroke-width="5" stroke-linecap="round"/>
  <path d="M88 92h18" stroke="#16A34A" stroke-width="6" stroke-linecap="round"/>
  <path d="M97 83v18" stroke="#16A34A" stroke-width="6" stroke-linecap="round"/>
</svg>
